<?xml version="1.0" standalone="no"?>
<!DOCTYPE svg PUBLIC "-//W3C//DTD SVG 20010904//EN"
 "http://www.w3.org/TR/2001/REC-SVG-20010904/DTD/svg10.dtd">
<svg version="1.0" xmlns="http://www.w3.org/2000/svg"
 width="1280.000000pt" height="1104.000000pt" viewBox="0 0 1280.000000 1104.000000"
 preserveAspectRatio="xMidYMid meet">
<metadata>
Created by potrace 1.15, written by Peter Selinger 2001-2017
</metadata>
<g transform="translate(0.000000,1104.000000) scale(0.100000,-0.100000)"
fill="#ffffff" stroke="none">
<path d="M11218 11017 c-20 -12 -51 -40 -69 -62 -64 -80 -150 -289 -214 -522
-26 -94 -31 -105 -65 -127 -20 -13 -83 -60 -139 -104 -155 -120 -271 -172
-388 -172 -82 0 -128 12 -287 72 -158 60 -212 95 -434 276 -95 78 -192 155
-215 171 -146 100 -252 111 -324 34 -52 -55 -68 -124 -67 -293 1 -239 21 -339
134 -687 113 -346 153 -519 169 -743 5 -80 20 -203 32 -275 15 -90 23 -175 23
-275 1 -178 -5 -192 -105 -245 -69 -36 -104 -69 -142 -136 -21 -37 -24 -39
-73 -39 -199 0 -741 44 -1239 101 -159 19 -249 22 -550 23 -566 2 -702 -20
-1725 -273 -267 -66 -541 -139 -610 -162 -560 -186 -939 -426 -1396 -885
l-211 -211 -147 -37 c-553 -139 -1008 -400 -1192 -685 -125 -195 -167 -365
-219 -876 -29 -282 -46 -397 -81 -537 -82 -330 -247 -595 -502 -809 -222 -185
-407 -283 -822 -434 -206 -75 -284 -112 -326 -157 -27 -27 -29 -35 -28 -101 1
-113 46 -187 144 -238 39 -21 59 -24 150 -23 98 0 114 3 240 46 284 98 695
284 917 417 138 82 292 200 346 264 80 94 76 83 208 642 115 492 218 754 349
884 65 65 252 189 360 240 91 42 167 68 175 59 3 -3 13 -52 21 -109 8 -57 26
-148 40 -202 18 -73 24 -125 24 -204 0 -254 77 -565 197 -795 43 -81 83 -138
281 -395 111 -146 165 -261 204 -438 22 -100 16 -505 -9 -705 -32 -243 -36
-325 -24 -426 25 -209 99 -344 325 -596 159 -177 410 -392 664 -568 67 -47
156 -108 197 -137 140 -98 271 -119 530 -83 363 49 472 97 432 192 -8 18 -54
78 -104 133 -111 125 -142 141 -377 201 -99 25 -202 56 -230 69 -72 35 -144
101 -225 209 -38 51 -98 118 -132 147 -120 105 -122 107 -115 141 22 112 287
495 403 584 21 16 70 60 110 97 l72 69 51 -69 c64 -86 135 -231 150 -307 14
-71 7 -145 -21 -203 l-21 -43 57 -107 c95 -180 159 -268 305 -414 244 -246
749 -669 978 -820 232 -153 456 -254 682 -308 225 -54 369 -63 510 -31 84 19
85 19 103 -1 20 -22 43 -24 84 -8 93 35 138 153 113 296 -22 131 -70 202 -164
245 -45 20 -66 23 -186 23 l-135 0 -108 57 c-415 221 -877 649 -927 858 -19
80 -7 289 24 425 57 245 159 536 315 904 112 260 142 321 187 371 94 103 296
183 569 224 281 42 446 51 503 27 48 -20 77 -79 107 -221 15 -69 42 -190 60
-270 68 -295 117 -674 154 -1191 l9 -126 97 -234 c162 -395 178 -430 233 -523
126 -213 248 -322 416 -371 44 -13 85 -16 165 -13 93 4 121 9 230 47 117 40
125 42 154 27 55 -26 88 12 106 125 41 248 -11 306 -339 383 -179 42 -167 30
-205 211 -84 397 -93 1021 -19 1400 54 277 178 580 355 863 94 151 110 168
171 183 68 16 177 14 253 -6 85 -21 244 -103 348 -178 120 -87 237 -190 462
-408 105 -101 296 -277 425 -390 260 -227 387 -356 440 -444 19 -32 51 -106
71 -164 36 -104 36 -105 18 -135 -26 -45 -49 -145 -49 -212 0 -74 32 -146 90
-204 44 -44 149 -100 188 -100 18 0 28 -11 44 -47 48 -110 95 -155 174 -168
25 -4 51 -16 65 -31 17 -18 33 -24 65 -24 80 0 223 122 254 216 25 74 -6 172
-80 257 -29 33 -45 64 -59 118 -33 119 -59 292 -71 469 -12 191 -20 238 -61
374 -83 270 -313 709 -597 1138 -98 149 -137 224 -174 333 -20 60 -23 89 -22
205 0 129 3 143 51 330 56 214 81 352 113 625 31 276 35 294 78 390 86 195
123 439 103 686 -25 311 -95 566 -275 1009 -26 63 -50 136 -53 162 -8 63 11
177 52 313 18 60 43 143 55 184 l21 73 26 -23 25 -24 -22 37 -22 38 37 155
c20 85 40 155 43 155 11 0 217 -134 292 -189 94 -71 110 -80 85 -51 -35 39
-161 136 -268 206 -56 37 -103 68 -104 69 -3 2 29 168 33 173 4 6 147 -39 284
-90 165 -61 311 -127 408 -184 39 -24 72 -41 72 -38 0 9 -167 113 -245 152
-100 50 -279 120 -411 162 l-101 32 13 71 c20 103 12 97 95 81 114 -22 96 -6
-30 26 -41 11 -43 13 -37 42 3 17 16 96 27 176 28 190 24 304 -13 384 -30 66
-105 150 -148 168 -17 7 -30 15 -30 19 0 3 -7 51 -15 106 -16 112 -42 190
-114 333 -41 82 -51 112 -61 192 -45 355 -193 672 -344 741 -54 24 -83 24
-128 -4z m172 -2569 c0 -4 -9 -8 -20 -8 -21 0 -24 8 -13 36 6 16 7 16 20 -2 7
-10 13 -21 13 -26z"/>
</g>
</svg>
